<?xml version="1.0"?>
<svg width="9143.98" height="9143.98" xmlns="http://www.w3.org/2000/svg" xmlns:svg="http://www.w3.org/2000/svg" clip-rule="evenodd" fill-rule="evenodd" version="1.1" xml:space="preserve">
 <defs>
  <path d="m0,0z" id="svg_18"/>
  <style type="text/css">
   <![CDATA[
    @font-face { font-family:"Copperplate Gothic Bold";font-variant:small-caps;font-style:normal;font-weight:normal;src:url("#FontID0") format(svg)}
    .str3 {stroke:#195646;stroke-width:7.62;stroke-miterlimit:22.9256}
    .str0 {stroke:#FEFEFE;stroke-width:70;stroke-linecap:round;stroke-linejoin:round;stroke-miterlimit:22.9256}
    .str2 {stroke:#373435;stroke-width:35;stroke-linecap:round;stroke-linejoin:round;stroke-miterlimit:22.9256}
    .str1 {stroke:#FEFEFE;stroke-width:17.64;stroke-linecap:round;stroke-linejoin:round;stroke-miterlimit:22.9256}
    .fil0 {fill:none}
    .fil2 {fill:none;fill-rule:nonzero}
    .fil1 {fill:#FEFEFE}
    .fil7 {fill:#373435}
    .fil6 {fill:#FFF212}
    .fil5 {fill:#EC268F}
    .fil4 {fill:#00AFEF}
    .fil3 {fill:#FEFEFE;fill-rule:nonzero}
    .fil8 {fill:#E6E7E8;fill-rule:nonzero}
    .fil9 {fill:#373435;fill-rule:nonzero}
    .fil10 {fill:#195646;fill-rule:nonzero}
    .fnt1 {font-variant:small-caps;font-weight:normal;font-size:451.99px;font-family:'Copperplate Gothic Bold'}
    .fnt0 {font-variant:small-caps;font-weight:normal;font-size:564.99px;font-family:'Copperplate Gothic Bold'}
   ]]>
  </style>
 </defs>
 <g class="layer">
  <title>Layer 1</title>
  <g id="Capa_x0020_1" transform="matrix(1.38701 0 0 1.30211 -582.821 -3214.48)">
   <metadata id="CorelCorpID_0Corel-Layer"/>
   <g id="_792193888">
    <g id="svg_19">
     <path class="fil0 str0" d="m1645.02,4032.03c448.27,0 835.88,93.16 989.83,223.73c-170.57,-118.24 -538.19,-200.49 -959.39,-200.49c-574.44,0 -1031.27,152.99 -1020.14,341.63c2.44,41.49 27.34,81.23 70.79,118.02c-62.19,-43.06 -98.26,-90.88 -101.23,-141.26c-11.12,-188.65 445.7,-341.63 1020.14,-341.63z" id="svg_20"/>
     <path class="fil1" d="m1645.02,4032.03c448.27,0 835.88,93.16 989.83,223.73c-170.57,-118.24 -538.19,-200.49 -959.39,-200.49c-574.44,0 -1031.27,152.99 -1020.14,341.63c2.44,41.49 27.34,81.23 70.79,118.02c-62.19,-43.06 -98.26,-90.88 -101.23,-141.26c-11.12,-188.65 445.7,-341.63 1020.14,-341.63z" id="1"/>
    </g>
    <g id="svg_21">
     <path class="fil0 str0" d="m1675.46,4055.27c448.24,0 835.84,93.15 989.8,223.71c-170.59,-118.23 -538.19,-200.47 -959.36,-200.47c-574.44,0 -1031.27,152.99 -1020.14,341.63c2.45,41.49 27.35,81.24 70.79,118.03c-62.2,-43.06 -98.26,-90.89 -101.23,-141.27c-11.13,-188.65 445.7,-341.63 1020.14,-341.63z" id="svg_22"/>
     <path class="fil1" d="m1675.46,4055.27c448.24,0 835.84,93.15 989.8,223.71c-170.59,-118.23 -538.19,-200.47 -959.36,-200.47c-574.44,0 -1031.27,152.99 -1020.14,341.63c2.45,41.49 27.35,81.24 70.79,118.03c-62.2,-43.06 -98.26,-90.89 -101.23,-141.27c-11.13,-188.65 445.7,-341.63 1020.14,-341.63z" id="svg_1"/>
    </g>
    <g id="svg_23">
     <path class="fil0 str0" d="m1705.91,4078.51c448.28,0 835.91,93.17 989.84,223.74c-170.56,-118.25 -538.19,-200.5 -959.4,-200.5c-574.44,0 -1031.27,152.98 -1020.14,341.63c2.45,41.49 27.36,81.24 70.81,118.04c-62.2,-43.06 -98.27,-90.89 -101.25,-141.28c-11.12,-188.65 445.7,-341.63 1020.14,-341.63z" id="svg_24"/>
     <path class="fil1" d="m1705.91,4078.51c448.28,0 835.91,93.17 989.84,223.74c-170.56,-118.25 -538.19,-200.5 -959.4,-200.5c-574.44,0 -1031.27,152.98 -1020.14,341.63c2.45,41.49 27.36,81.24 70.81,118.04c-62.2,-43.06 -98.27,-90.89 -101.25,-141.28c-11.12,-188.65 445.7,-341.63 1020.14,-341.63z" id="svg_2"/>
    </g>
    <g id="svg_25">
     <path class="fil0 str0" d="m1736.34,4101.75c448.18,0 835.73,93.12 989.73,223.65c-170.63,-118.2 -538.19,-200.41 -959.29,-200.41c-574.44,0 -1031.27,152.98 -1020.14,341.63c2.44,41.47 27.32,81.21 70.72,117.98c-62.14,-43.05 -98.2,-90.86 -101.17,-141.23c-11.12,-188.65 445.7,-341.63 1020.14,-341.63z" id="svg_26"/>
     <path class="fil1" d="m1736.34,4101.75c448.18,0 835.73,93.12 989.73,223.65c-170.63,-118.2 -538.19,-200.41 -959.29,-200.41c-574.44,0 -1031.27,152.98 -1020.14,341.63c2.44,41.47 27.32,81.21 70.72,117.98c-62.14,-43.05 -98.2,-90.86 -101.17,-141.23c-11.12,-188.65 445.7,-341.63 1020.14,-341.63z" id="svg_3"/>
    </g>
    <g id="svg_27">
     <path class="fil2 str0" d="m1578.74,4370.23l8.46,143.53c1.49,25.3 -6.01,45.5 -22.56,60.67c-16.49,15.11 -39.23,22.69 -68.18,22.69c-28.88,0 -51.36,-7.36 -67.5,-22.09c-16.13,-14.67 -25.05,-35.81 -26.67,-63.38l-8.34,-141.42l75.97,0l8.33,141.26c0.8,13.51 6.75,20.26 17.88,20.26c10.8,0 15.77,-6.75 14.97,-20.26l-8.33,-141.26l75.97,0zm49.92,221.35l-6.78,-114.97c-1.19,-20.15 4.83,-36.26 18.04,-48.38c13.21,-12.12 31.39,-18.16 54.59,-18.16c23.07,0 41.05,5.87 54.01,17.66c12.9,11.73 20.03,28.67 21.33,50.7l6.67,113.14l-60.83,0l-6.67,-113.14c-0.64,-10.79 -5.43,-16.22 -14.31,-16.22c-8.56,0 -12.53,5.42 -11.89,16.22l6.67,113.14l-60.83,0zm235.24,-177.07l10.44,177.07l-60.83,0l-10.44,-177.07l60.83,0zm187.73,0l-78.03,187.2l-99.54,-187.2l70.35,0l21.98,55.24l17.44,-55.24l67.79,0zm126.43,68.86l2.33,39.47l-39.68,0c-5.37,0 -9.16,0.66 -11.32,2.05c-2.16,1.38 -3.17,3.76 -2.97,7.03c0.22,3.71 1.51,6.14 3.88,7.31c2.37,1.16 7.07,1.77 14.16,1.77l40.89,0l2.98,50.59l-47.8,0c-22.43,0 -39.89,-4.65 -52.32,-13.95c-12.43,-9.3 -19.17,-22.69 -20.21,-40.3l-4.09,-69.35c-1,-17 3.85,-30.11 14.54,-39.47c10.69,-9.35 26.2,-14.01 46.58,-14.01l52.84,0l3,50.87l-38.78,0c-10.48,0 -15.55,2.94 -15.2,8.8c0.2,3.43 1.62,5.87 4.19,7.2c2.57,1.33 7.02,1.99 13.41,1.99l33.54,0zm98.36,-21.26l7.64,129.47l-60.83,0l-10.44,-177.07l78.02,0c23.77,0 42.47,5.09 56.17,15.34c15.24,11.4 23.38,25.85 24.41,43.45c1.06,17.88 -7.06,32.99 -24.42,45.22l39.32,73.07l-63.77,0l-32.89,-57.07l-2.69,-45.55l4.79,0c12.78,0 18.89,-4.76 18.33,-14.28c-0.49,-8.36 -8.15,-12.57 -22.91,-12.57l-10.74,0zm215.74,-48.38l2.97,50.43c-4.48,-1.27 -7.91,-1.94 -10.28,-1.94c-4.6,0 -8.47,1.49 -11.62,4.43c-3.09,2.93 -4.54,6.48 -4.29,10.63c0.21,3.54 2.26,8.03 6.16,13.51l5.07,6.97c9.12,12.68 14.06,24.85 14.75,36.59c1.02,17.21 -5.22,31.83 -18.64,43.73c-13.42,11.96 -30.32,17.93 -50.64,17.93c-9.77,0 -19.6,-1.94 -29.42,-5.87l-3.02,-51.25c6,3.21 11.21,4.82 15.68,4.82c5.3,0 9.63,-1.33 13.06,-3.93c3.36,-2.66 4.95,-5.98 4.72,-9.96c-0.15,-2.6 -3.36,-8.25 -9.56,-16.99c-9.89,-13.84 -15.24,-27.68 -16.06,-41.52c-0.98,-16.66 5,-31.05 18.03,-43.12c13.03,-12.07 29.09,-18.1 48.13,-18.1c8.43,0 16.69,1.22 24.94,3.65zm127.58,-3.65c28.95,0 54.28,9.13 76.12,27.4c21.78,18.21 33.42,40.07 34.91,65.48c1.53,25.91 -7.6,47.83 -27.42,65.93c-19.76,18.1 -44.6,27.12 -74.44,27.12c-29.71,0 -55.55,-9.08 -77.58,-27.23c-22.03,-18.16 -33.8,-40.13 -35.32,-65.81c-1.53,-25.9 7.72,-47.88 27.81,-65.87c20.03,-17.99 45.31,-27.01 75.92,-27.01zm1.28,52.14c-12.52,0 -22.9,3.98 -31.24,11.96c-8.29,7.92 -12.13,17.55 -11.46,28.78c0.66,11.24 5.64,20.87 14.92,28.78c9.35,7.97 20.19,11.96 32.59,11.96c12.52,0 22.96,-3.93 31.25,-11.85c8.29,-7.91 12.06,-17.55 11.4,-28.89c-0.67,-11.35 -5.58,-20.98 -14.8,-28.89c-9.22,-7.92 -20.13,-11.85 -32.65,-11.85z" id="svg_28"/>
     <path class="fil3" d="m1578.74,4370.23l8.46,143.53c1.49,25.3 -6.01,45.5 -22.56,60.67c-16.49,15.11 -39.23,22.69 -68.18,22.69c-28.88,0 -51.36,-7.36 -67.5,-22.09c-16.13,-14.67 -25.05,-35.81 -26.67,-63.38l-8.34,-141.42l75.97,0l8.33,141.26c0.8,13.51 6.75,20.26 17.88,20.26c10.8,0 15.77,-6.75 14.97,-20.26l-8.33,-141.26l75.97,0zm49.92,221.35l-6.78,-114.97c-1.19,-20.15 4.83,-36.26 18.04,-48.38c13.21,-12.12 31.39,-18.16 54.59,-18.16c23.07,0 41.05,5.87 54.01,17.66c12.9,11.73 20.03,28.67 21.33,50.7l6.67,113.14l-60.83,0l-6.67,-113.14c-0.64,-10.79 -5.43,-16.22 -14.31,-16.22c-8.56,0 -12.53,5.42 -11.89,16.22l6.67,113.14l-60.83,0zm235.24,-177.07l10.44,177.07l-60.83,0l-10.44,-177.07l60.83,0zm187.73,0l-78.03,187.2l-99.54,-187.2l70.35,0l21.98,55.24l17.44,-55.24l67.79,0zm126.43,68.86l2.33,39.47l-39.68,0c-5.37,0 -9.16,0.66 -11.32,2.05c-2.16,1.38 -3.17,3.76 -2.97,7.03c0.22,3.71 1.51,6.14 3.88,7.31c2.37,1.16 7.07,1.77 14.16,1.77l40.89,0l2.98,50.59l-47.8,0c-22.43,0 -39.89,-4.65 -52.32,-13.95c-12.43,-9.3 -19.17,-22.69 -20.21,-40.3l-4.09,-69.35c-1,-17 3.85,-30.11 14.54,-39.47c10.69,-9.35 26.2,-14.01 46.58,-14.01l52.84,0l3,50.87l-38.78,0c-10.48,0 -15.55,2.94 -15.2,8.8c0.2,3.43 1.62,5.87 4.19,7.2c2.57,1.33 7.02,1.99 13.41,1.99l33.54,0zm98.36,-21.26l7.64,129.47l-60.83,0l-10.44,-177.07l78.02,0c23.77,0 42.47,5.09 56.17,15.34c15.24,11.4 23.38,25.85 24.41,43.45c1.06,17.88 -7.06,32.99 -24.42,45.22l39.32,73.07l-63.77,0l-32.89,-57.07l-2.69,-45.55l4.79,0c12.78,0 18.89,-4.76 18.33,-14.28c-0.49,-8.36 -8.15,-12.57 -22.91,-12.57l-10.74,0zm215.74,-48.38l2.97,50.43c-4.48,-1.27 -7.91,-1.94 -10.28,-1.94c-4.6,0 -8.47,1.49 -11.62,4.43c-3.09,2.93 -4.54,6.48 -4.29,10.63c0.21,3.54 2.26,8.03 6.16,13.51l5.07,6.97c9.12,12.68 14.06,24.85 14.75,36.59c1.02,17.21 -5.22,31.83 -18.64,43.73c-13.42,11.96 -30.32,17.93 -50.64,17.93c-9.77,0 -19.6,-1.94 -29.42,-5.87l-3.02,-51.25c6,3.21 11.21,4.82 15.68,4.82c5.3,0 9.63,-1.33 13.06,-3.93c3.36,-2.66 4.95,-5.98 4.72,-9.96c-0.15,-2.6 -3.36,-8.25 -9.56,-16.99c-9.89,-13.84 -15.24,-27.68 -16.06,-41.52c-0.98,-16.66 5,-31.05 18.03,-43.12c13.03,-12.07 29.09,-18.1 48.13,-18.1c8.43,0 16.69,1.22 24.94,3.65zm127.58,-3.65c28.95,0 54.28,9.13 76.12,27.4c21.78,18.21 33.42,40.07 34.91,65.48c1.53,25.91 -7.6,47.83 -27.42,65.93c-19.76,18.1 -44.6,27.12 -74.44,27.12c-29.71,0 -55.55,-9.08 -77.58,-27.23c-22.03,-18.16 -33.8,-40.13 -35.32,-65.81c-1.53,-25.9 7.72,-47.88 27.81,-65.87c20.03,-17.99 45.31,-27.01 75.92,-27.01zm1.28,52.14c-12.52,0 -22.9,3.98 -31.24,11.96c-8.29,7.92 -12.13,17.55 -11.46,28.78c0.66,11.24 5.64,20.87 14.92,28.78c9.35,7.97 20.19,11.96 32.59,11.96c12.52,0 22.96,-3.93 31.25,-11.85c8.29,-7.91 12.06,-17.55 11.4,-28.89c-0.67,-11.35 -5.58,-20.98 -14.8,-28.89c-9.22,-7.92 -20.13,-11.85 -32.65,-11.85z" id="svg_4"/>
    </g>
    <g id="svg_29">
     <polygon class="fil0 str0" id="svg_30" points="842.3304443359375,4439.48974609375 988.5799560546875,4439.48974609375 995.0191650390625,4548.663818359375 848.769775390625,4548.663818359375 "/>
     <polygon class="fil1" id="svg_5" points="842.3304443359375,4439.48974609375 988.5799560546875,4439.48974609375 995.0191650390625,4548.663818359375 848.769775390625,4548.663818359375 "/>
    </g>
    <g id="svg_31">
     <polygon class="fil0 str0" id="svg_32" points="982.1790161132812,4329.9228515625 1128.428466796875,4329.9228515625 1134.8677978515625,4439.09716796875 988.6183471679688,4439.09716796875 "/>
     <polygon class="fil1" id="svg_6" points="982.1790161132812,4329.9228515625 1128.428466796875,4329.9228515625 1134.8677978515625,4439.09716796875 988.6183471679688,4439.09716796875 "/>
    </g>
    <g id="svg_33">
     <polygon class="fil0 str0" id="svg_34" points="1134.7808837890625,4437.60302734375 1281.0302734375,4437.60302734375 1287.467041015625,4546.77685546875 1141.217529296875,4546.77685546875 "/>
     <polygon class="fil1" id="svg_7" points="1134.7808837890625,4437.60302734375 1281.0302734375,4437.60302734375 1287.467041015625,4546.77685546875 1141.217529296875,4546.77685546875 "/>
    </g>
    <g id="svg_35">
     <polygon class="fil0 str0" id="svg_36" points="1122.7973022460938,4221.2509765625 1269.0494384765625,4221.2509765625 1275.486083984375,4330.425048828125 1129.236572265625,4330.425048828125 "/>
     <polygon class="fil1" id="svg_8" points="1122.7973022460938,4221.2509765625 1269.0494384765625,4221.2509765625 1275.486083984375,4330.425048828125 1129.236572265625,4330.425048828125 "/>
    </g>
    <g id="svg_37">
     <path class="fil2 str0" d="m1414.43,4317.44l-5.25,-89.07c-0.09,-1.55 -0.51,-2.74 -1.25,-3.55c-0.73,-0.81 -1.98,-1.5 -3.78,-2l-0.15,-2.52l31.54,0l0.15,2.52c-1.74,0.48 -2.92,1.11 -3.55,1.98c-0.63,0.84 -0.92,2.03 -0.83,3.58l5.25,89.07c0.09,1.6 0.52,2.81 1.28,3.66c0.76,0.87 2.01,1.5 3.76,1.97l0.15,2.52l-31.54,0l-0.15,-2.52c1.74,-0.53 2.91,-1.18 3.54,-2c0.64,-0.81 0.92,-2.03 0.82,-3.63z" id="svg_38"/>
    </g>
    <g id="svg_39">
     <path class="fil2 str0" d="m1507.75,4325.59l-33.21,-58.2l3.05,51.68c0.07,1.28 0.41,2.25 1,2.9c0.59,0.65 1.59,1.18 3.03,1.6l0.12,2.02l-23.66,0l-0.12,-2.02c1.39,-0.42 2.33,-0.95 2.84,-1.6c0.51,-0.65 0.73,-1.62 0.66,-2.9l-4.2,-71.26c-0.07,-1.24 -0.41,-2.19 -1,-2.84c-0.58,-0.65 -1.59,-1.2 -3.02,-1.6l-0.12,-2.02l31.07,0l0.12,2.02c-1.83,0.49 -2.69,1.62 -2.59,3.39c0.05,0.82 0.39,1.77 1,2.84l24.55,43.37l19.79,-42.63c0.88,-1.9 1.28,-3.27 1.23,-4.13c-0.1,-1.68 -1.15,-2.63 -3.12,-2.84l-0.12,-2.02l30.57,0l0.12,2.02c-1.39,0.4 -2.33,0.95 -2.84,1.6c-0.51,0.65 -0.74,1.6 -0.66,2.84l4.2,71.26c0.08,1.28 0.41,2.25 1,2.9c0.58,0.65 1.59,1.18 3.02,1.6l0.12,2.02l-25.23,0l-0.12,-2.02c1.35,-0.38 2.29,-0.89 2.82,-1.58c0.53,-0.67 0.75,-1.64 0.68,-2.92l-3.05,-51.68l-27.92,58.2z" id="svg_9"/>
    </g>
    <g id="svg_40">
     <path class="fil2 str0" d="m1594.75,4291.37l1.64,27.76c0.07,1.24 0.41,2.19 1.02,2.86c0.61,0.69 1.61,1.2 3,1.58l0.12,2.02l-25.23,0l-0.12,-2.02c1.39,-0.42 2.33,-0.95 2.84,-1.6c0.51,-0.65 0.73,-1.6 0.66,-2.84l-4.2,-71.26c-0.07,-1.29 -0.41,-2.26 -1,-2.91c-0.58,-0.65 -1.59,-1.2 -3.03,-1.6l-0.12,-2.02l50.48,0c5.88,0 10.58,0.42 14.09,1.24c3.51,0.82 6.64,2.23 9.41,4.25c2.85,2.08 5.14,4.84 6.89,8.25c1.75,3.54 2.74,7.29 2.97,11.22c0.34,5.68 -0.83,10.65 -3.51,14.95c-2.31,3.64 -5.49,6.25 -9.57,7.79c-4.07,1.54 -9.85,2.32 -17.31,2.32l-29.03,0zm-0.82,-13.9l26.99,0c5.38,0 9.12,-0.59 11.22,-1.79c1.35,-0.78 2.39,-2.02 3.13,-3.73c0.75,-1.7 1.06,-3.58 0.94,-5.64c-0.12,-2 -0.65,-3.85 -1.6,-5.56c-0.95,-1.71 -2.14,-2.95 -3.58,-3.73c-2.19,-1.2 -6.01,-1.79 -11.43,-1.79l-26.99,0l1.31,22.23z" id="2"/>
    </g>
    <g id="svg_41">
     <path class="fil2 str0" d="m1687.56,4291.24l1.65,27.89c0.07,1.24 0.41,2.19 1.02,2.86c0.61,0.69 1.61,1.2 3,1.58l0.12,2.02l-25.23,0l-0.12,-2.02c1.39,-0.42 2.33,-0.95 2.84,-1.6c0.51,-0.65 0.73,-1.6 0.66,-2.84l-4.2,-71.26c-0.07,-1.29 -0.41,-2.26 -1,-2.91c-0.58,-0.65 -1.59,-1.2 -3.03,-1.6l-0.12,-2.02l50.62,0c6.17,0 11.08,0.38 14.74,1.12c3.66,0.73 6.89,2.04 9.69,3.89c3.24,2.15 5.74,5.05 7.51,8.72c1.66,3.53 2.62,7.32 2.85,11.37c0.81,13.77 -6.05,21.81 -20.57,24.17l17.07,23.18c2.99,4.06 5.17,6.67 6.53,7.85c1.36,1.16 2.96,1.81 4.83,1.94l0.12,2.02l-29.25,0l-0.12,-2.02c1.98,-0.34 2.95,-1.07 2.88,-2.21c-0.04,-0.74 -1.08,-2.53 -3.11,-5.37l-17.93,-24.76l-21.45,0zm-0.82,-13.89l27.27,0c4.03,0 6.87,-0.13 8.51,-0.38c1.64,-0.23 3.15,-0.76 4.48,-1.54c2.91,-1.68 4.23,-4.73 3.97,-9.13c-0.26,-4.4 -1.94,-7.46 -5.05,-9.14c-1.46,-0.82 -3.01,-1.35 -4.62,-1.58c-1.61,-0.23 -4.49,-0.34 -8.59,-0.34l-27.27,0l1.3,22.1z" id="3"/>
    </g>
    <g id="svg_42">
     <path class="fil2 str0" d="m1785.74,4288.59l1.36,23.11l51.9,0c1.19,0 2.08,-0.3 2.68,-0.87c0.59,-0.57 1.06,-1.58 1.36,-3.05l1.94,0l1.28,21.72l-1.94,0c-0.47,-1.47 -1.06,-2.48 -1.71,-3.05c-0.66,-0.57 -1.59,-0.87 -2.78,-0.87l-73.37,0l-0.12,-2.02c1.39,-0.42 2.33,-0.95 2.84,-1.6c0.51,-0.65 0.73,-1.62 0.66,-2.9l-4.2,-71.2c-0.08,-1.29 -0.41,-2.26 -1,-2.91c-0.58,-0.65 -1.59,-1.2 -3.02,-1.6l-0.12,-2.02l71.91,0c1.19,0 2.09,-0.29 2.68,-0.86c0.59,-0.59 1.06,-1.6 1.36,-3.05l1.94,0l1.28,21.72l-1.94,0c-0.47,-1.45 -1.06,-2.46 -1.72,-3.05c-0.66,-0.57 -1.59,-0.86 -2.76,-0.86l-50.46,0l1.18,19.96l32.75,0c1.17,0 2.07,-0.3 2.66,-0.87c0.6,-0.57 1.06,-1.58 1.36,-3.05l1.94,0l1.25,21.22l-1.94,0c-0.47,-1.43 -1.05,-2.44 -1.72,-3.03c-0.66,-0.59 -1.59,-0.88 -2.76,-0.88l-32.75,0z" id="4"/>
    </g>
    <g id="svg_43">
     <path class="fil2 str0" d="m1875.11,4267.91l3.02,51.16c0.07,1.28 0.41,2.25 1,2.9c0.59,0.65 1.59,1.18 3.03,1.6l0.12,2.02l-23.66,0l-0.12,-2.02c1.39,-0.42 2.33,-0.95 2.84,-1.6c0.51,-0.65 0.73,-1.62 0.66,-2.9l-4.2,-71.26c-0.07,-1.24 -0.41,-2.19 -1,-2.84c-0.58,-0.65 -1.59,-1.2 -3.02,-1.6l-0.12,-2.02l27.43,0l0.12,2.02c-1.67,0.45 -2.44,1.39 -2.36,2.84c0.06,0.99 0.67,2.06 1.83,3.26l47.63,48.27l-2.95,-49.93c-0.07,-1.24 -0.41,-2.19 -1,-2.84c-0.58,-0.65 -1.59,-1.2 -3.03,-1.6l-0.12,-2.02l23.65,0l0.12,2.02c-1.39,0.4 -2.33,0.95 -2.84,1.6c-0.51,0.65 -0.74,1.6 -0.66,2.84l4.2,71.26c0.08,1.28 0.42,2.25 1,2.9c0.59,0.65 1.59,1.18 3.03,1.6l0.12,2.02l-25.43,0l-0.12,-2.02c1.64,-0.38 2.41,-1.26 2.33,-2.65c-0.05,-0.82 -1.1,-2.25 -3.15,-4.32l-48.36,-48.69z" id="5"/>
    </g>
    <g id="svg_44">
     <path class="fil2 str0" d="m2002.64,4255.24l3.76,63.83c0.08,1.28 0.41,2.25 1,2.9c0.59,0.65 1.59,1.18 3.03,1.6l0.12,2.02l-25.23,0l-0.12,-2.02c1.39,-0.42 2.33,-0.95 2.84,-1.6c0.51,-0.65 0.73,-1.62 0.66,-2.9l-3.76,-63.83l-24.99,0c-1.17,0 -2.07,0.27 -2.66,0.84c-0.59,0.55 -1.06,1.58 -1.36,3.07l-1.94,0l-1.28,-21.72l1.94,0c0.51,1.49 1.1,2.51 1.74,3.07c0.66,0.57 1.57,0.84 2.74,0.84l67.63,0c1.21,0 2.13,-0.27 2.72,-0.84c0.6,-0.57 1.06,-1.58 1.36,-3.07l1.94,0l1.28,21.72l-1.94,0c-0.48,-1.49 -1.06,-2.52 -1.72,-3.07c-0.66,-0.57 -1.61,-0.84 -2.82,-0.84l-24.93,0z" id="6"/>
    </g>
    <g id="svg_45">
     <path class="fil2 str0" d="m2096.53,4304l-36.47,0l-4.8,11.89c-0.65,1.66 -0.96,2.95 -0.9,3.89c0.11,1.83 1.52,3.09 4.21,3.79l0.12,2.02l-26.74,0l-0.12,-2.02c1.55,-0.34 2.74,-0.9 3.52,-1.73c0.78,-0.82 1.64,-2.42 2.55,-4.8l25.93,-64.67c0.83,-2.06 1.2,-3.71 1.12,-4.95c-0.11,-1.89 -1.32,-3.24 -3.67,-4.06l-0.12,-2.02l28.67,0l0.12,2.02c-2.3,0.7 -3.39,1.92 -3.28,3.64c0.07,1.18 0.51,2.55 1.35,4.06l34.59,64.86c1.48,2.76 2.72,4.63 3.77,5.64c1.05,1.01 2.4,1.66 4.08,2l0.12,2.02l-29.84,0l-0.12,-2.02c2.58,-0.46 3.8,-1.73 3.68,-3.83c-0.05,-0.89 -0.53,-2.17 -1.42,-3.85l-6.32,-11.89zm-5.73,-11.49l-14.73,-29.75l-11.47,29.75l26.2,0z" id="7"/>
    </g>
    <g id="svg_46" transform="matrix(0.268373 0 0.0164798 0.27945 -72.0499 2395.97)">
     <text class="fil1 fnt0" id="svg_16" x="5065.22" y="6905.1">I</text>
     <text class="fil1 fnt1" id="svg_17" x="5250.35" y="6905.1">mprenta</text>
    </g>
    <g id="svg_47">
     <path class="fil0 str1" d="m1645.02,4032.03c448.27,0 835.88,93.16 989.83,223.73c-170.57,-118.24 -538.19,-200.49 -959.39,-200.49c-574.44,0 -1031.27,152.99 -1020.14,341.63c2.44,41.49 27.34,81.23 70.79,118.02c-62.19,-43.06 -98.26,-90.88 -101.23,-141.26c-11.12,-188.65 445.7,-341.63 1020.14,-341.63z" id="svg_48"/>
     <path class="fil4" d="m1645.02,4032.03c448.27,0 835.88,93.16 989.83,223.73c-170.57,-118.24 -538.19,-200.49 -959.39,-200.49c-574.44,0 -1031.27,152.99 -1020.14,341.63c2.44,41.49 27.34,81.23 70.79,118.02c-62.19,-43.06 -98.26,-90.88 -101.23,-141.26c-11.12,-188.65 445.7,-341.63 1020.14,-341.63z" id="svg_10"/>
    </g>
    <g id="svg_49">
     <path class="fil0 str1" d="m1675.46,4055.27c448.24,0 835.84,93.15 989.8,223.71c-170.59,-118.23 -538.19,-200.47 -959.36,-200.47c-574.44,0 -1031.27,152.99 -1020.14,341.63c2.45,41.49 27.35,81.24 70.79,118.03c-62.2,-43.06 -98.26,-90.89 -101.23,-141.27c-11.13,-188.65 445.7,-341.63 1020.14,-341.63z" id="svg_50"/>
     <path class="fil5" d="m1675.46,4055.27c448.24,0 835.84,93.15 989.8,223.71c-170.59,-118.23 -538.19,-200.47 -959.36,-200.47c-574.44,0 -1031.27,152.99 -1020.14,341.63c2.45,41.49 27.35,81.24 70.79,118.03c-62.2,-43.06 -98.26,-90.89 -101.23,-141.27c-11.13,-188.65 445.7,-341.63 1020.14,-341.63z" id="svg_11"/>
    </g>
    <g id="svg_51">
     <path class="fil0 str1" d="m1705.91,4078.51c448.28,0 835.91,93.17 989.84,223.74c-170.56,-118.25 -538.19,-200.5 -959.4,-200.5c-574.44,0 -1031.27,152.98 -1020.14,341.63c2.45,41.49 27.36,81.24 70.81,118.04c-62.2,-43.06 -98.27,-90.89 -101.25,-141.28c-11.12,-188.65 445.7,-341.63 1020.14,-341.63z" id="svg_52"/>
     <path class="fil6" d="m1705.91,4078.51c448.28,0 835.91,93.17 989.84,223.74c-170.56,-118.25 -538.19,-200.5 -959.4,-200.5c-574.44,0 -1031.27,152.98 -1020.14,341.63c2.45,41.49 27.36,81.24 70.81,118.04c-62.2,-43.06 -98.27,-90.89 -101.25,-141.28c-11.12,-188.65 445.7,-341.63 1020.14,-341.63z" id="svg_12"/>
    </g>
    <g id="svg_53">
     <path class="fil0 str1" d="m1736.34,4101.75c448.18,0 835.73,93.12 989.73,223.65c-170.63,-118.2 -538.19,-200.41 -959.29,-200.41c-574.44,0 -1031.27,152.98 -1020.14,341.63c2.44,41.47 27.32,81.21 70.72,117.98c-62.14,-43.05 -98.2,-90.86 -101.17,-141.23c-11.12,-188.65 445.7,-341.63 1020.14,-341.63z" id="svg_54"/>
     <path class="fil7" d="m1736.34,4101.75c448.18,0 835.73,93.12 989.73,223.65c-170.63,-118.2 -538.19,-200.41 -959.29,-200.41c-574.44,0 -1031.27,152.98 -1020.14,341.63c2.44,41.47 27.32,81.21 70.72,117.98c-62.14,-43.05 -98.2,-90.86 -101.17,-141.23c-11.12,-188.65 445.7,-341.63 1020.14,-341.63z" id="svg_13"/>
    </g>
    <polygon class="fil7" id="svg_55" points="842.3304443359375,4439.48974609375 988.5799560546875,4439.48974609375 995.0191650390625,4548.663818359375 848.769775390625,4548.663818359375 "/>
    <polygon class="fil6" id="svg_56" points="982.1790161132812,4329.9228515625 1128.428466796875,4329.9228515625 1134.8677978515625,4439.09716796875 988.6183471679688,4439.09716796875 "/>
    <polygon class="fil5" id="svg_57" points="1134.7808837890625,4437.60302734375 1281.0302734375,4437.60302734375 1287.467041015625,4546.77685546875 1141.217529296875,4546.77685546875 "/>
    <polygon class="fil4" id="svg_58" points="1122.7973022460938,4221.2509765625 1269.0494384765625,4221.2509765625 1275.486083984375,4330.425048828125 1129.236572265625,4330.425048828125 "/>
    <g id="svg_59">
     <path class="fil2 str2" d="m1414.43,4317.44l-5.25,-89.07c-0.09,-1.55 -0.51,-2.74 -1.25,-3.55c-0.73,-0.81 -1.98,-1.5 -3.78,-2l-0.15,-2.52l31.54,0l0.15,2.52c-1.74,0.48 -2.92,1.11 -3.55,1.98c-0.63,0.84 -0.92,2.03 -0.83,3.58l5.25,89.07c0.09,1.6 0.52,2.82 1.28,3.66c0.76,0.87 2.01,1.5 3.76,1.97l0.15,2.52l-31.54,0l-0.15,-2.52c1.74,-0.53 2.91,-1.18 3.54,-2c0.63,-0.81 0.92,-2.03 0.82,-3.63zm93.32,8.16l-33.21,-58.2l3.05,51.68c0.07,1.28 0.42,2.25 1,2.9c0.59,0.65 1.59,1.18 3.03,1.6l0.12,2.02l-23.65,0l-0.12,-2.02c1.39,-0.42 2.33,-0.95 2.84,-1.6c0.51,-0.65 0.73,-1.62 0.66,-2.9l-4.2,-71.26c-0.07,-1.24 -0.41,-2.19 -1,-2.84c-0.58,-0.65 -1.59,-1.2 -3.02,-1.6l-0.12,-2.02l31.07,0l0.12,2.02c-1.83,0.48 -2.69,1.62 -2.59,3.39c0.05,0.82 0.39,1.77 0.99,2.84l24.55,43.36l19.79,-42.63c0.88,-1.9 1.28,-3.27 1.23,-4.13c-0.1,-1.69 -1.15,-2.63 -3.12,-2.84l-0.12,-2.02l30.57,0l0.12,2.02c-1.39,0.4 -2.33,0.95 -2.84,1.6c-0.51,0.65 -0.74,1.6 -0.66,2.84l4.2,71.26c0.08,1.28 0.42,2.25 1,2.9c0.59,0.65 1.59,1.18 3.03,1.6l0.12,2.02l-25.23,0l-0.12,-2.02c1.35,-0.38 2.29,-0.89 2.82,-1.58c0.53,-0.67 0.75,-1.64 0.68,-2.92l-3.05,-51.68l-27.92,58.2zm86.99,-34.23l1.64,27.76c0.07,1.24 0.41,2.19 1.02,2.86c0.61,0.69 1.61,1.2 3,1.58l0.12,2.02l-25.23,0l-0.12,-2.02c1.39,-0.42 2.33,-0.95 2.84,-1.6c0.51,-0.65 0.73,-1.6 0.66,-2.84l-4.2,-71.26c-0.07,-1.28 -0.41,-2.25 -1,-2.91c-0.58,-0.65 -1.59,-1.2 -3.03,-1.6l-0.12,-2.02l50.48,0c5.88,0 10.58,0.42 14.08,1.24c3.51,0.82 6.64,2.23 9.41,4.25c2.85,2.08 5.14,4.84 6.89,8.25c1.74,3.54 2.73,7.28 2.96,11.22c0.34,5.68 -0.83,10.65 -3.5,14.95c-2.31,3.64 -5.5,6.25 -9.57,7.79c-4.07,1.54 -9.85,2.31 -17.31,2.31l-29.03,0zm-0.82,-13.89l26.99,0c5.38,0 9.12,-0.59 11.22,-1.79c1.35,-0.78 2.39,-2.02 3.14,-3.73c0.75,-1.7 1.06,-3.58 0.94,-5.64c-0.12,-2 -0.65,-3.85 -1.6,-5.56c-0.95,-1.71 -2.13,-2.95 -3.58,-3.73c-2.19,-1.2 -6.01,-1.79 -11.43,-1.79l-26.99,0l1.31,22.23zm93.63,13.77l1.64,27.89c0.07,1.24 0.41,2.19 1.02,2.86c0.61,0.69 1.61,1.2 3,1.58l0.12,2.02l-25.23,0l-0.12,-2.02c1.39,-0.42 2.33,-0.95 2.84,-1.6c0.51,-0.65 0.74,-1.6 0.66,-2.84l-4.2,-71.26c-0.08,-1.28 -0.41,-2.25 -1,-2.91c-0.58,-0.65 -1.59,-1.2 -3.03,-1.6l-0.12,-2.02l50.62,0c6.16,0 11.08,0.38 14.74,1.12c3.66,0.74 6.89,2.04 9.69,3.89c3.24,2.15 5.74,5.05 7.51,8.71c1.66,3.54 2.62,7.33 2.85,11.37c0.81,13.77 -6.05,21.81 -20.57,24.17l17.08,23.18c2.99,4.06 5.17,6.67 6.53,7.85c1.36,1.16 2.96,1.81 4.82,1.94l0.12,2.02l-29.25,0l-0.12,-2.02c1.98,-0.34 2.95,-1.07 2.88,-2.21c-0.04,-0.74 -1.08,-2.53 -3.1,-5.37l-17.94,-24.76l-21.45,0zm-0.82,-13.89l27.27,0c4.02,0 6.87,-0.13 8.51,-0.38c1.64,-0.23 3.15,-0.76 4.48,-1.54c2.92,-1.68 4.23,-4.74 3.97,-9.13c-0.26,-4.4 -1.94,-7.46 -5.05,-9.14c-1.46,-0.82 -3.01,-1.35 -4.62,-1.58c-1.61,-0.23 -4.49,-0.34 -8.59,-0.34l-27.27,0l1.3,22.1zm99,11.24l1.36,23.11l51.9,0c1.19,0 2.09,-0.3 2.68,-0.87c0.6,-0.57 1.06,-1.58 1.36,-3.05l1.94,0l1.28,21.72l-1.94,0c-0.47,-1.47 -1.06,-2.48 -1.72,-3.05c-0.66,-0.57 -1.59,-0.87 -2.78,-0.87l-73.36,0l-0.12,-2.02c1.39,-0.42 2.33,-0.95 2.84,-1.6c0.51,-0.65 0.73,-1.62 0.66,-2.9l-4.2,-71.2c-0.08,-1.28 -0.42,-2.25 -1,-2.91c-0.58,-0.65 -1.59,-1.2 -3.03,-1.6l-0.12,-2.02l71.91,0c1.19,0 2.08,-0.3 2.68,-0.87c0.59,-0.59 1.06,-1.6 1.36,-3.05l1.94,0l1.28,21.72l-1.94,0c-0.47,-1.45 -1.06,-2.46 -1.72,-3.05c-0.66,-0.57 -1.59,-0.87 -2.76,-0.87l-50.46,0l1.18,19.96l32.75,0c1.17,0 2.07,-0.3 2.66,-0.87c0.59,-0.57 1.06,-1.58 1.36,-3.05l1.94,0l1.25,21.22l-1.94,0c-0.47,-1.43 -1.05,-2.44 -1.71,-3.03c-0.66,-0.59 -1.59,-0.88 -2.76,-0.88l-32.75,0zm89.37,-20.67l3.02,51.16c0.08,1.28 0.42,2.25 1,2.9c0.59,0.65 1.59,1.18 3.03,1.6l0.12,2.02l-23.65,0l-0.12,-2.02c1.39,-0.42 2.33,-0.95 2.84,-1.6c0.51,-0.65 0.73,-1.62 0.66,-2.9l-4.2,-71.26c-0.07,-1.24 -0.41,-2.19 -1,-2.84c-0.58,-0.65 -1.59,-1.2 -3.03,-1.6l-0.12,-2.02l27.43,0l0.12,2.02c-1.67,0.44 -2.44,1.39 -2.36,2.84c0.06,0.99 0.66,2.06 1.83,3.26l47.62,48.27l-2.94,-49.93c-0.07,-1.24 -0.41,-2.19 -1,-2.84c-0.58,-0.65 -1.59,-1.2 -3.03,-1.6l-0.12,-2.02l23.66,0l0.12,2.02c-1.39,0.4 -2.33,0.95 -2.84,1.6c-0.51,0.65 -0.73,1.6 -0.66,2.84l4.2,71.26c0.08,1.28 0.41,2.25 1,2.9c0.59,0.65 1.59,1.18 3.03,1.6l0.12,2.02l-25.43,0l-0.12,-2.02c1.64,-0.38 2.41,-1.26 2.33,-2.65c-0.05,-0.82 -1.1,-2.25 -3.14,-4.32l-48.36,-48.69zm127.53,-12.67l3.76,63.83c0.07,1.28 0.42,2.25 1,2.9c0.58,0.65 1.59,1.18 3.03,1.6l0.12,2.02l-25.23,0l-0.12,-2.02c1.39,-0.42 2.33,-0.95 2.84,-1.6c0.51,-0.65 0.73,-1.62 0.66,-2.9l-3.76,-63.83l-24.99,0c-1.17,0 -2.06,0.27 -2.66,0.84c-0.59,0.55 -1.06,1.58 -1.36,3.07l-1.94,0l-1.28,-21.72l1.94,0c0.51,1.49 1.1,2.5 1.74,3.07c0.66,0.57 1.57,0.84 2.74,0.84l67.63,0c1.21,0 2.13,-0.27 2.72,-0.84c0.6,-0.57 1.06,-1.58 1.36,-3.07l1.94,0l1.28,21.72l-1.94,0c-0.47,-1.49 -1.06,-2.52 -1.72,-3.07c-0.66,-0.57 -1.61,-0.84 -2.82,-0.84l-24.93,0zm93.89,48.76l-36.47,0l-4.8,11.89c-0.65,1.66 -0.96,2.95 -0.9,3.89c0.11,1.83 1.52,3.09 4.21,3.79l0.12,2.02l-26.75,0l-0.12,-2.02c1.55,-0.34 2.73,-0.91 3.52,-1.73c0.78,-0.82 1.64,-2.42 2.55,-4.8l25.93,-64.67c0.83,-2.06 1.19,-3.71 1.12,-4.95c-0.11,-1.89 -1.32,-3.24 -3.68,-4.06l-0.12,-2.02l28.67,0l0.12,2.02c-2.3,0.7 -3.38,1.92 -3.28,3.64c0.07,1.18 0.52,2.55 1.35,4.06l34.59,64.86c1.48,2.76 2.72,4.63 3.77,5.64c1.05,1.01 2.4,1.66 4.08,2l0.12,2.02l-29.84,0l-0.12,-2.02c2.58,-0.46 3.8,-1.73 3.67,-3.83c-0.05,-0.89 -0.53,-2.17 -1.42,-3.85l-6.32,-11.89zm-5.73,-11.49l-14.73,-29.75l-11.47,29.75l26.2,0z" id="svg_60"/>
     <path class="fil8" d="m1414.43,4317.44l-5.25,-89.07c-0.09,-1.55 -0.51,-2.74 -1.25,-3.55c-0.73,-0.81 -1.98,-1.5 -3.78,-2l-0.15,-2.52l31.54,0l0.15,2.52c-1.74,0.48 -2.92,1.11 -3.55,1.98c-0.63,0.84 -0.92,2.03 -0.83,3.58l5.25,89.07c0.09,1.6 0.52,2.82 1.28,3.66c0.76,0.87 2.01,1.5 3.76,1.97l0.15,2.52l-31.54,0l-0.15,-2.52c1.74,-0.53 2.91,-1.18 3.54,-2c0.63,-0.81 0.92,-2.03 0.82,-3.63zm93.32,8.16l-33.21,-58.2l3.05,51.68c0.07,1.28 0.42,2.25 1,2.9c0.59,0.65 1.59,1.18 3.03,1.6l0.12,2.02l-23.65,0l-0.12,-2.02c1.39,-0.42 2.33,-0.95 2.84,-1.6c0.51,-0.65 0.73,-1.62 0.66,-2.9l-4.2,-71.26c-0.07,-1.24 -0.41,-2.19 -1,-2.84c-0.58,-0.65 -1.59,-1.2 -3.02,-1.6l-0.12,-2.02l31.07,0l0.12,2.02c-1.83,0.48 -2.69,1.62 -2.59,3.39c0.05,0.82 0.39,1.77 0.99,2.84l24.55,43.36l19.79,-42.63c0.88,-1.9 1.28,-3.27 1.23,-4.13c-0.1,-1.69 -1.15,-2.63 -3.12,-2.84l-0.12,-2.02l30.57,0l0.12,2.02c-1.39,0.4 -2.33,0.95 -2.84,1.6c-0.51,0.65 -0.74,1.6 -0.66,2.84l4.2,71.26c0.08,1.28 0.42,2.25 1,2.9c0.59,0.65 1.59,1.18 3.03,1.6l0.12,2.02l-25.23,0l-0.12,-2.02c1.35,-0.38 2.29,-0.89 2.82,-1.58c0.53,-0.67 0.75,-1.64 0.68,-2.92l-3.05,-51.68l-27.92,58.2zm86.99,-34.23l1.64,27.76c0.07,1.24 0.41,2.19 1.02,2.86c0.61,0.69 1.61,1.2 3,1.58l0.12,2.02l-25.23,0l-0.12,-2.02c1.39,-0.42 2.33,-0.95 2.84,-1.6c0.51,-0.65 0.73,-1.6 0.66,-2.84l-4.2,-71.26c-0.07,-1.28 -0.41,-2.25 -1,-2.91c-0.58,-0.65 -1.59,-1.2 -3.03,-1.6l-0.12,-2.02l50.48,0c5.88,0 10.58,0.42 14.08,1.24c3.51,0.82 6.64,2.23 9.41,4.25c2.85,2.08 5.14,4.84 6.89,8.25c1.74,3.54 2.73,7.28 2.96,11.22c0.34,5.68 -0.83,10.65 -3.5,14.95c-2.31,3.64 -5.5,6.25 -9.57,7.79c-4.07,1.54 -9.85,2.31 -17.31,2.31l-29.03,0zm-0.82,-13.89l26.99,0c5.38,0 9.12,-0.59 11.22,-1.79c1.35,-0.78 2.39,-2.02 3.14,-3.73c0.75,-1.7 1.06,-3.58 0.94,-5.64c-0.12,-2 -0.65,-3.85 -1.6,-5.56c-0.95,-1.71 -2.13,-2.95 -3.58,-3.73c-2.19,-1.2 -6.01,-1.79 -11.43,-1.79l-26.99,0l1.31,22.23zm93.63,13.77l1.64,27.89c0.07,1.24 0.41,2.19 1.02,2.86c0.61,0.69 1.61,1.2 3,1.58l0.12,2.02l-25.23,0l-0.12,-2.02c1.39,-0.42 2.33,-0.95 2.84,-1.6c0.51,-0.65 0.74,-1.6 0.66,-2.84l-4.2,-71.26c-0.08,-1.28 -0.41,-2.25 -1,-2.91c-0.58,-0.65 -1.59,-1.2 -3.03,-1.6l-0.12,-2.02l50.62,0c6.16,0 11.08,0.38 14.74,1.12c3.66,0.74 6.89,2.04 9.69,3.89c3.24,2.15 5.74,5.05 7.51,8.71c1.66,3.54 2.62,7.33 2.85,11.37c0.81,13.77 -6.05,21.81 -20.57,24.17l17.08,23.18c2.99,4.06 5.17,6.67 6.53,7.85c1.36,1.16 2.96,1.81 4.82,1.94l0.12,2.02l-29.25,0l-0.12,-2.02c1.98,-0.34 2.95,-1.07 2.88,-2.21c-0.04,-0.74 -1.08,-2.53 -3.1,-5.37l-17.94,-24.76l-21.45,0zm-0.82,-13.89l27.27,0c4.02,0 6.87,-0.13 8.51,-0.38c1.64,-0.23 3.15,-0.76 4.48,-1.54c2.92,-1.68 4.23,-4.74 3.97,-9.13c-0.26,-4.4 -1.94,-7.46 -5.05,-9.14c-1.46,-0.82 -3.01,-1.35 -4.62,-1.58c-1.61,-0.23 -4.49,-0.34 -8.59,-0.34l-27.27,0l1.3,22.1zm99,11.24l1.36,23.11l51.9,0c1.19,0 2.09,-0.3 2.68,-0.87c0.6,-0.57 1.06,-1.58 1.36,-3.05l1.94,0l1.28,21.72l-1.94,0c-0.47,-1.47 -1.06,-2.48 -1.72,-3.05c-0.66,-0.57 -1.59,-0.87 -2.78,-0.87l-73.36,0l-0.12,-2.02c1.39,-0.42 2.33,-0.95 2.84,-1.6c0.51,-0.65 0.73,-1.62 0.66,-2.9l-4.2,-71.2c-0.08,-1.28 -0.42,-2.25 -1,-2.91c-0.58,-0.65 -1.59,-1.2 -3.03,-1.6l-0.12,-2.02l71.91,0c1.19,0 2.08,-0.3 2.68,-0.87c0.59,-0.59 1.06,-1.6 1.36,-3.05l1.94,0l1.28,21.72l-1.94,0c-0.47,-1.45 -1.06,-2.46 -1.72,-3.05c-0.66,-0.57 -1.59,-0.87 -2.76,-0.87l-50.46,0l1.18,19.96l32.75,0c1.17,0 2.07,-0.3 2.66,-0.87c0.59,-0.57 1.06,-1.58 1.36,-3.05l1.94,0l1.25,21.22l-1.94,0c-0.47,-1.43 -1.05,-2.44 -1.71,-3.03c-0.66,-0.59 -1.59,-0.88 -2.76,-0.88l-32.75,0zm89.37,-20.67l3.02,51.16c0.08,1.28 0.42,2.25 1,2.9c0.59,0.65 1.59,1.18 3.03,1.6l0.12,2.02l-23.65,0l-0.12,-2.02c1.39,-0.42 2.33,-0.95 2.84,-1.6c0.51,-0.65 0.73,-1.62 0.66,-2.9l-4.2,-71.26c-0.07,-1.24 -0.41,-2.19 -1,-2.84c-0.58,-0.65 -1.59,-1.2 -3.03,-1.6l-0.12,-2.02l27.43,0l0.12,2.02c-1.67,0.44 -2.44,1.39 -2.36,2.84c0.06,0.99 0.66,2.06 1.83,3.26l47.62,48.27l-2.94,-49.93c-0.07,-1.24 -0.41,-2.19 -1,-2.84c-0.58,-0.65 -1.59,-1.2 -3.03,-1.6l-0.12,-2.02l23.66,0l0.12,2.02c-1.39,0.4 -2.33,0.95 -2.84,1.6c-0.51,0.65 -0.73,1.6 -0.66,2.84l4.2,71.26c0.08,1.28 0.41,2.25 1,2.9c0.59,0.65 1.59,1.18 3.03,1.6l0.12,2.02l-25.43,0l-0.12,-2.02c1.64,-0.38 2.41,-1.26 2.33,-2.65c-0.05,-0.82 -1.1,-2.25 -3.14,-4.32l-48.36,-48.69zm127.53,-12.67l3.76,63.83c0.07,1.28 0.42,2.25 1,2.9c0.58,0.65 1.59,1.18 3.03,1.6l0.12,2.02l-25.23,0l-0.12,-2.02c1.39,-0.42 2.33,-0.95 2.84,-1.6c0.51,-0.65 0.73,-1.62 0.66,-2.9l-3.76,-63.83l-24.99,0c-1.17,0 -2.06,0.27 -2.66,0.84c-0.59,0.55 -1.06,1.58 -1.36,3.07l-1.94,0l-1.28,-21.72l1.94,0c0.51,1.49 1.1,2.5 1.74,3.07c0.66,0.57 1.57,0.84 2.74,0.84l67.63,0c1.21,0 2.13,-0.27 2.72,-0.84c0.6,-0.57 1.06,-1.58 1.36,-3.07l1.94,0l1.28,21.72l-1.94,0c-0.47,-1.49 -1.06,-2.52 -1.72,-3.07c-0.66,-0.57 -1.61,-0.84 -2.82,-0.84l-24.93,0zm93.89,48.76l-36.47,0l-4.8,11.89c-0.65,1.66 -0.96,2.95 -0.9,3.89c0.11,1.83 1.52,3.09 4.21,3.79l0.12,2.02l-26.75,0l-0.12,-2.02c1.55,-0.34 2.73,-0.91 3.52,-1.73c0.78,-0.82 1.64,-2.42 2.55,-4.8l25.93,-64.67c0.83,-2.06 1.19,-3.71 1.12,-4.95c-0.11,-1.89 -1.32,-3.24 -3.68,-4.06l-0.12,-2.02l28.67,0l0.12,2.02c-2.3,0.7 -3.38,1.92 -3.28,3.64c0.07,1.18 0.52,2.55 1.35,4.06l34.59,64.86c1.48,2.76 2.72,4.63 3.77,5.64c1.05,1.01 2.4,1.66 4.08,2l0.12,2.02l-29.84,0l-0.12,-2.02c2.58,-0.46 3.8,-1.73 3.67,-3.83c-0.05,-0.89 -0.53,-2.17 -1.42,-3.85l-6.32,-11.89zm-5.73,-11.49l-14.73,-29.75l-11.47,29.75l26.2,0z" id="svg_14"/>
    </g>
    <g id="svg_61">
     <path class="fil2 str1" d="m1578.74,4370.23l8.46,143.53c1.49,25.3 -6.01,45.5 -22.56,60.67c-16.49,15.11 -39.23,22.69 -68.18,22.69c-28.88,0 -51.36,-7.36 -67.5,-22.09c-16.13,-14.67 -25.05,-35.81 -26.67,-63.38l-8.34,-141.42l75.97,0l8.33,141.26c0.8,13.51 6.75,20.26 17.88,20.26c10.8,0 15.77,-6.75 14.97,-20.26l-8.33,-141.26l75.97,0zm49.92,221.35l-6.78,-114.97c-1.19,-20.15 4.83,-36.26 18.04,-48.38c13.21,-12.12 31.39,-18.16 54.59,-18.16c23.07,0 41.05,5.87 54.01,17.66c12.9,11.73 20.03,28.67 21.33,50.7l6.67,113.14l-60.83,0l-6.67,-113.14c-0.64,-10.79 -5.43,-16.22 -14.31,-16.22c-8.56,0 -12.53,5.42 -11.89,16.22l6.67,113.14l-60.83,0zm235.24,-177.07l10.44,177.07l-60.83,0l-10.44,-177.07l60.83,0zm187.73,0l-78.03,187.2l-99.54,-187.2l70.35,0l21.98,55.24l17.44,-55.24l67.79,0zm126.43,68.86l2.33,39.47l-39.68,0c-5.37,0 -9.16,0.66 -11.32,2.05c-2.16,1.38 -3.17,3.76 -2.97,7.03c0.22,3.71 1.51,6.14 3.88,7.31c2.37,1.16 7.07,1.77 14.16,1.77l40.89,0l2.98,50.59l-47.8,0c-22.43,0 -39.89,-4.65 -52.32,-13.95c-12.43,-9.3 -19.17,-22.69 -20.21,-40.3l-4.09,-69.35c-1,-17 3.85,-30.11 14.54,-39.47c10.69,-9.35 26.2,-14.01 46.58,-14.01l52.84,0l3,50.87l-38.78,0c-10.48,0 -15.55,2.94 -15.2,8.8c0.2,3.43 1.62,5.87 4.19,7.2c2.57,1.33 7.02,1.99 13.41,1.99l33.54,0zm98.36,-21.26l7.64,129.47l-60.83,0l-10.44,-177.07l78.02,0c23.77,0 42.47,5.09 56.17,15.34c15.24,11.4 23.38,25.85 24.41,43.45c1.06,17.88 -7.06,32.99 -24.42,45.22l39.32,73.07l-63.77,0l-32.89,-57.07l-2.69,-45.55l4.79,0c12.78,0 18.89,-4.76 18.33,-14.28c-0.49,-8.36 -8.15,-12.57 -22.91,-12.57l-10.74,0zm215.74,-48.38l2.97,50.43c-4.48,-1.27 -7.91,-1.94 -10.28,-1.94c-4.6,0 -8.47,1.49 -11.62,4.43c-3.09,2.93 -4.54,6.48 -4.29,10.63c0.21,3.54 2.26,8.03 6.16,13.51l5.07,6.97c9.12,12.68 14.06,24.85 14.75,36.59c1.02,17.21 -5.22,31.83 -18.64,43.73c-13.42,11.96 -30.32,17.93 -50.64,17.93c-9.77,0 -19.6,-1.94 -29.42,-5.87l-3.02,-51.25c6,3.21 11.21,4.82 15.68,4.82c5.3,0 9.63,-1.33 13.06,-3.93c3.36,-2.66 4.95,-5.98 4.72,-9.96c-0.15,-2.6 -3.36,-8.25 -9.56,-16.99c-9.89,-13.84 -15.24,-27.68 -16.06,-41.52c-0.98,-16.66 5,-31.05 18.03,-43.12c13.03,-12.07 29.09,-18.1 48.13,-18.1c8.43,0 16.69,1.22 24.94,3.65zm127.58,-3.65c28.95,0 54.28,9.13 76.12,27.4c21.78,18.21 33.42,40.07 34.91,65.48c1.53,25.91 -7.6,47.83 -27.42,65.93c-19.76,18.1 -44.6,27.12 -74.44,27.12c-29.71,0 -55.55,-9.08 -77.58,-27.23c-22.03,-18.16 -33.8,-40.13 -35.32,-65.81c-1.53,-25.9 7.72,-47.88 27.81,-65.87c20.03,-17.99 45.31,-27.01 75.92,-27.01zm1.28,52.14c-12.52,0 -22.9,3.98 -31.24,11.96c-8.29,7.92 -12.13,17.55 -11.46,28.78c0.66,11.24 5.64,20.87 14.92,28.78c9.35,7.97 20.19,11.96 32.59,11.96c12.52,0 22.96,-3.93 31.25,-11.85c8.29,-7.91 12.06,-17.55 11.4,-28.89c-0.67,-11.35 -5.58,-20.98 -14.8,-28.89c-9.22,-7.92 -20.13,-11.85 -32.65,-11.85z" id="svg_62"/>
     <path class="fil9" d="m1578.74,4370.23l8.46,143.53c1.49,25.3 -6.01,45.5 -22.56,60.67c-16.49,15.11 -39.23,22.69 -68.18,22.69c-28.88,0 -51.36,-7.36 -67.5,-22.09c-16.13,-14.67 -25.05,-35.81 -26.67,-63.38l-8.34,-141.42l75.97,0l8.33,141.26c0.8,13.51 6.75,20.26 17.88,20.26c10.8,0 15.77,-6.75 14.97,-20.26l-8.33,-141.26l75.97,0zm49.92,221.35l-6.78,-114.97c-1.19,-20.15 4.83,-36.26 18.04,-48.38c13.21,-12.12 31.39,-18.16 54.59,-18.16c23.07,0 41.05,5.87 54.01,17.66c12.9,11.73 20.03,28.67 21.33,50.7l6.67,113.14l-60.83,0l-6.67,-113.14c-0.64,-10.79 -5.43,-16.22 -14.31,-16.22c-8.56,0 -12.53,5.42 -11.89,16.22l6.67,113.14l-60.83,0zm235.24,-177.07l10.44,177.07l-60.83,0l-10.44,-177.07l60.83,0zm187.73,0l-78.03,187.2l-99.54,-187.2l70.35,0l21.98,55.24l17.44,-55.24l67.79,0zm126.43,68.86l2.33,39.47l-39.68,0c-5.37,0 -9.16,0.66 -11.32,2.05c-2.16,1.38 -3.17,3.76 -2.97,7.03c0.22,3.71 1.51,6.14 3.88,7.31c2.37,1.16 7.07,1.77 14.16,1.77l40.89,0l2.98,50.59l-47.8,0c-22.43,0 -39.89,-4.65 -52.32,-13.95c-12.43,-9.3 -19.17,-22.69 -20.21,-40.3l-4.09,-69.35c-1,-17 3.85,-30.11 14.54,-39.47c10.69,-9.35 26.2,-14.01 46.58,-14.01l52.84,0l3,50.87l-38.78,0c-10.48,0 -15.55,2.94 -15.2,8.8c0.2,3.43 1.62,5.87 4.19,7.2c2.57,1.33 7.02,1.99 13.41,1.99l33.54,0zm98.36,-21.26l7.64,129.47l-60.83,0l-10.44,-177.07l78.02,0c23.77,0 42.47,5.09 56.17,15.34c15.24,11.4 23.38,25.85 24.41,43.45c1.06,17.88 -7.06,32.99 -24.42,45.22l39.32,73.07l-63.77,0l-32.89,-57.07l-2.69,-45.55l4.79,0c12.78,0 18.89,-4.76 18.33,-14.28c-0.49,-8.36 -8.15,-12.57 -22.91,-12.57l-10.74,0zm215.74,-48.38l2.97,50.43c-4.48,-1.27 -7.91,-1.94 -10.28,-1.94c-4.6,0 -8.47,1.49 -11.62,4.43c-3.09,2.93 -4.54,6.48 -4.29,10.63c0.21,3.54 2.26,8.03 6.16,13.51l5.07,6.97c9.12,12.68 14.06,24.85 14.75,36.59c1.02,17.21 -5.22,31.83 -18.64,43.73c-13.42,11.96 -30.32,17.93 -50.64,17.93c-9.77,0 -19.6,-1.94 -29.42,-5.87l-3.02,-51.25c6,3.21 11.21,4.82 15.68,4.82c5.3,0 9.63,-1.33 13.06,-3.93c3.36,-2.66 4.95,-5.98 4.72,-9.96c-0.15,-2.6 -3.36,-8.25 -9.56,-16.99c-9.89,-13.84 -15.24,-27.68 -16.06,-41.52c-0.98,-16.66 5,-31.05 18.03,-43.12c13.03,-12.07 29.09,-18.1 48.13,-18.1c8.43,0 16.69,1.22 24.94,3.65zm127.58,-3.65c28.95,0 54.28,9.13 76.12,27.4c21.78,18.21 33.42,40.07 34.91,65.48c1.53,25.91 -7.6,47.83 -27.42,65.93c-19.76,18.1 -44.6,27.12 -74.44,27.12c-29.71,0 -55.55,-9.08 -77.58,-27.23c-22.03,-18.16 -33.8,-40.13 -35.32,-65.81c-1.53,-25.9 7.72,-47.88 27.81,-65.87c20.03,-17.99 45.31,-27.01 75.92,-27.01zm1.28,52.14c-12.52,0 -22.9,3.98 -31.24,11.96c-8.29,7.92 -12.13,17.55 -11.46,28.78c0.66,11.24 5.64,20.87 14.92,28.78c9.35,7.97 20.19,11.96 32.59,11.96c12.52,0 22.96,-3.93 31.25,-11.85c8.29,-7.91 12.06,-17.55 11.4,-28.89c-0.67,-11.35 -5.58,-20.98 -14.8,-28.89c-9.22,-7.92 -20.13,-11.85 -32.65,-11.85z" id="svg_15"/>
    </g>
    <path class="fil10 str3" d="m1541.42,4718.49c-9.03,11.63 -19.9,17.44 -32.65,17.44c-9.12,0 -16.61,-3.56 -22.46,-10.68c-5.83,-7.12 -8.75,-16.25 -8.75,-27.42c0,-11.12 2.1,-21.71 6.34,-31.73c4.23,-10.03 9.75,-18.05 16.59,-24.06c6.83,-6.01 13.53,-9.01 20.12,-9.01c5.52,0 10.02,2.06 13.49,6.18c3.49,4.12 5.22,9.47 5.22,16.06c0,8.58 -2.1,15.99 -6.32,22.26c-4.19,6.27 -9.12,9.42 -14.76,9.42c-2.96,0 -5.4,-0.94 -7.31,-2.86c-1.89,-1.89 -2.85,-4.33 -2.85,-7.31c0,-2.57 0.82,-4.94 2.46,-7.12c1.23,2.81 2.91,4.21 5.03,4.21c3.04,0 5.87,-2.37 8.48,-7.1c2.61,-4.72 3.92,-9.91 3.92,-15.53c0,-3.93 -0.74,-7.05 -2.2,-9.37c-1.46,-2.3 -3.41,-3.47 -5.85,-3.47c-3.53,0 -7.31,2.74 -11.33,8.24c-4.01,5.47 -7.37,12.52 -10.06,21.15c-2.67,8.6 -4.01,16.79 -4.01,24.56c0,9.88 2.26,18 6.76,24.32c4.5,6.35 10.23,9.52 17.19,9.52c4.42,0 8.4,-1.28 11.93,-3.83c3.55,-2.57 7.21,-6.56 11.01,-12.01l0,8.14zm60.94,0.14c-6.08,7.17 -10.45,11.87 -13.08,14.03c-2.63,2.18 -5.12,3.27 -7.52,3.27c-6.02,0 -8.87,-6.61 -8.52,-19.84c-3.8,6.78 -7.31,11.77 -10.53,14.99c-3.21,3.22 -6.53,4.85 -9.96,4.85c-3.33,0 -6.18,-1.96 -8.52,-5.86c-2.34,-3.92 -3.51,-8.72 -3.51,-14.39c0,-7.12 1.56,-13.9 4.7,-20.35c3.14,-6.44 7.17,-11.65 12.07,-15.63c4.91,-4 9.26,-5.98 13.02,-5.98c4.76,0 8.09,2.71 9.98,8.16l11.74,-8.16l3.22,0l-5.07,20.91c-2.63,10.51 -3.94,17.71 -3.94,21.61c0,4.12 1.17,6.18 3.49,6.18c1.48,0 3.12,-1 4.89,-2.96c1.79,-1.96 4.31,-4.94 7.54,-8.96l0,8.14zm-41.77,3.78c3.8,0 7.39,-4.05 10.74,-12.11c3.38,-8.07 5.05,-15.5 5.05,-22.31c0,-2.66 -0.47,-4.72 -1.42,-6.22c-0.95,-1.48 -2.22,-2.23 -3.82,-2.23c-3.8,0 -7.41,4.02 -10.8,12.06c-3.41,8.04 -5.11,15.46 -5.11,22.21c0,2.57 0.51,4.63 1.52,6.23c0.99,1.57 2.28,2.37 3.84,2.37zm79.55,-3.78c-5.17,5.91 -9.71,10.27 -13.61,13.08c-3.92,2.81 -7.62,4.22 -11.17,4.22c-4.08,0 -7.35,-1.96 -9.85,-5.89c-2.5,-3.92 -3.74,-9.2 -3.74,-15.82c0,-9.96 1.74,-21.87 5.19,-35.78c3.45,-13.91 7.66,-26.75 12.59,-38.47l14.5,-6.66c0.45,-0.19 0.8,-0.29 1.03,-0.29c1.09,0 2.01,0.99 2.71,3c0.7,2.01 1.05,4.72 1.05,8.14c0,9.64 -1.79,18.99 -5.36,28.03c-3.57,9.04 -9.16,18.7 -16.76,28.95c-0.29,4.94 -0.45,8.33 -0.45,10.17c0,4.12 0.6,7.39 1.83,9.79c1.21,2.42 2.83,3.63 4.85,3.63c2.05,0 4.23,-0.92 6.55,-2.76c2.32,-1.84 5.87,-5.67 10.62,-11.48l0,8.14zm-21.87,-27.76c4.84,-6.68 8.75,-14.17 11.75,-22.48c3,-8.29 4.5,-15.43 4.5,-21.39c0,-1.77 -0.21,-3.17 -0.62,-4.24c-0.43,-1.07 -0.96,-1.6 -1.6,-1.6c-1.4,0 -3.45,4.36 -6.12,13.08c-2.69,8.72 -5.32,20.93 -7.91,36.63zm48.79,-44.62c0,11.34 -3.37,17.01 -10.1,17.01c-3.27,0 -6.06,-1.24 -8.38,-3.68c2.2,-4.17 3.92,-8.84 5.14,-14.05c3,2.33 5.42,3.49 7.23,3.49c2.05,0 4.09,-0.92 6.1,-2.76zm1.17,72.38c-8.91,11.53 -15.56,17.3 -19.98,17.3c-2.44,0 -4.48,-1.55 -6.16,-4.65c-1.68,-3.1 -2.52,-6.98 -2.52,-11.65c0,-10.07 2.73,-24.03 8.19,-41.86l14.52,-3.76l0.68,0l-5.71,22.19c-2.36,9.18 -3.53,15.72 -3.53,19.65c0,1.57 0.27,2.83 0.82,3.8c0.57,0.97 1.25,1.45 2.09,1.45c1.5,0 2.98,-0.66 4.48,-1.99c1.5,-1.33 3.88,-4.21 7.11,-8.62l0,8.14zm60.96,0c-5.48,6.76 -9.65,11.34 -12.53,13.71c-2.87,2.4 -5.4,3.59 -7.62,3.59c-2.69,0 -4.83,-1.65 -6.41,-4.92c-1.58,-3.27 -2.4,-8.07 -2.43,-14.37c-3.12,6.3 -6.51,11.1 -10.18,14.37c-3.66,3.27 -7,4.92 -9.96,4.92c-3.23,0 -6.08,-1.91 -8.56,-5.74c-2.48,-3.83 -3.7,-8.31 -3.7,-13.42c0,-10.61 3.1,-20.42 9.28,-29.48c6.18,-9.04 12.83,-13.56 19.94,-13.56c1.97,0 3.53,0.36 4.64,1.09c1.13,0.73 2.36,1.99 3.68,3.73l8.17,-42.76c6.65,-1.84 11.11,-2.76 13.43,-2.76c0.76,0 1.13,0.39 1.13,1.14c0,0.51 -0.93,5.42 -2.82,14.73c-7.56,37.21 -11.35,59.69 -11.35,67.46c0,1.84 0.31,3.3 0.92,4.41c0.6,1.09 1.4,1.65 2.38,1.65c2.43,0 6.43,-3.97 12.01,-11.92l0,8.14zm-41.25,3.78c3.72,0 7.19,-3.95 10.43,-11.87c3.23,-7.9 4.85,-15.31 4.85,-22.21c0,-2.81 -0.51,-5.06 -1.52,-6.74c-1.01,-1.67 -2.32,-2.5 -3.96,-2.5c-3.53,0 -6.96,4.14 -10.27,12.4c-3.3,8.26 -4.95,15.74 -4.95,22.41c0,2.62 0.49,4.7 1.46,6.23c0.96,1.53 2.28,2.28 3.96,2.28zm102.18,-3.78c-6.08,7.17 -10.45,11.87 -13.08,14.03c-2.63,2.18 -5.12,3.27 -7.52,3.27c-6.03,0 -8.87,-6.61 -8.52,-19.84c-3.8,6.78 -7.31,11.77 -10.53,14.99c-3.21,3.22 -6.53,4.85 -9.96,4.85c-3.33,0 -6.18,-1.96 -8.52,-5.86c-2.34,-3.92 -3.51,-8.72 -3.51,-14.39c0,-7.12 1.56,-13.9 4.7,-20.35c3.14,-6.44 7.17,-11.65 12.07,-15.63c4.91,-4 9.25,-5.98 13.02,-5.98c4.76,0 8.09,2.71 9.98,8.16l11.73,-8.16l3.22,0l-5.07,20.91c-2.63,10.51 -3.94,17.71 -3.94,21.61c0,4.12 1.17,6.18 3.49,6.18c1.48,0 3.12,-1 4.89,-2.96c1.8,-1.96 4.31,-4.94 7.54,-8.96l0,8.14zm-41.77,3.78c3.8,0 7.39,-4.05 10.74,-12.11c3.37,-8.07 5.05,-15.5 5.05,-22.31c0,-2.66 -0.47,-4.72 -1.42,-6.22c-0.96,-1.48 -2.22,-2.23 -3.82,-2.23c-3.8,0 -7.41,4.02 -10.8,12.06c-3.41,8.04 -5.11,15.46 -5.11,22.21c0,2.57 0.51,4.63 1.52,6.23c0.99,1.57 2.28,2.37 3.84,2.37zm102.71,-3.78c-5.48,6.76 -9.65,11.34 -12.54,13.71c-2.86,2.4 -5.4,3.59 -7.62,3.59c-2.69,0 -4.83,-1.65 -6.41,-4.92c-1.58,-3.27 -2.4,-8.07 -2.43,-14.37c-3.12,6.3 -6.51,11.1 -10.18,14.37c-3.66,3.27 -7,4.92 -9.96,4.92c-3.23,0 -6.08,-1.91 -8.56,-5.74c-2.48,-3.83 -3.7,-8.31 -3.7,-13.42c0,-10.61 3.1,-20.42 9.28,-29.48c6.18,-9.04 12.83,-13.56 19.94,-13.56c1.97,0 3.53,0.36 4.64,1.09c1.13,0.73 2.36,1.99 3.68,3.73l8.17,-42.76c6.65,-1.84 11.11,-2.76 13.43,-2.76c0.76,0 1.13,0.39 1.13,1.14c0,0.51 -0.93,5.42 -2.82,14.73c-7.56,37.21 -11.35,59.69 -11.35,67.46c0,1.84 0.31,3.3 0.92,4.41c0.6,1.09 1.4,1.65 2.38,1.65c2.43,0 6.43,-3.97 12.01,-11.92l0,8.14zm-41.25,3.78c3.72,0 7.19,-3.95 10.43,-11.87c3.23,-7.9 4.85,-15.31 4.85,-22.21c0,-2.81 -0.51,-5.06 -1.52,-6.74c-1.01,-1.67 -2.32,-2.5 -3.96,-2.5c-3.53,0 -6.96,4.14 -10.27,12.4c-3.3,8.26 -4.95,15.74 -4.95,22.41c0,2.62 0.49,4.7 1.46,6.23c0.95,1.53 2.28,2.28 3.96,2.28zm103.35,-45.49l0,-5.96c0,-10.56 2.22,-19.33 6.69,-26.31c4.44,-6.98 10,-10.46 16.61,-10.46c3.67,0 6.83,1.02 9.45,3.05c2.65,2.03 3.98,4.41 3.98,7.12c0,1.55 -1.25,3.49 -3.72,5.81c-2.48,2.32 -4,3.49 -4.56,3.49c-1.19,0 -1.89,-1.38 -2.14,-4.12c-0.26,-2.74 -0.86,-4.97 -1.8,-6.68c-0.95,-1.72 -2.28,-2.57 -3.96,-2.57c-2.05,0 -3.66,1.65 -4.85,4.97c-1.19,3.32 -1.77,7.9 -1.77,13.76c0,9.37 1.23,20.01 3.69,31.93c2.46,11.92 4.89,20.42 7.27,25.48c2.4,5.06 5.03,7.58 7.87,7.58c2.69,0 5.11,-1.65 7.23,-4.92c0.8,-0.99 1.36,-1.48 1.65,-1.48c0.51,0 1.03,0.39 1.6,1.14c0.57,0.75 0.86,1.33 0.86,1.77c0,1.41 -1.93,4.33 -5.77,8.77c-3.84,4.43 -8.03,6.64 -12.57,6.64c-3.43,0 -6.47,-1.28 -9.16,-3.83c-2.69,-2.57 -5.28,-6.54 -7.8,-11.92c-4.72,5.38 -8.91,9.35 -12.53,11.92c-3.63,2.55 -7.53,3.83 -11.68,3.83c-4.52,0 -8.23,-1.79 -11.11,-5.38c-2.91,-3.56 -4.35,-8.16 -4.35,-13.73c0,-14.61 10.29,-27.91 30.88,-39.9zm6.9,38.08c-3.06,-8.74 -5.36,-19.55 -6.9,-32.41c-5.51,3.22 -9.55,6.66 -12.14,10.32c-2.59,3.66 -3.88,8.19 -3.88,13.59c0,4.89 1.03,9.13 3.1,12.72c2.08,3.58 4.48,5.38 7.23,5.38c1.58,0 3.27,-0.63 5.03,-1.91c1.77,-1.28 4.29,-3.85 7.56,-7.68zm120.33,-81.97c8.03,0 14.43,2.42 19.18,7.27c4.76,4.85 7.13,11.34 7.13,19.43c0,7.46 -1.75,13.47 -5.28,17.97c-3.53,4.53 -6.55,6.78 -9.11,6.78c-0.95,0 -2.03,-0.51 -3.23,-1.55c-1.19,-1.04 -1.79,-1.98 -1.79,-2.83c0,-0.48 0.9,-2.18 2.67,-5.11c4.15,-6.42 6.22,-12.81 6.22,-19.14c0,-5.35 -1.44,-9.59 -4.33,-12.72c-2.88,-3.15 -6.8,-4.72 -11.75,-4.72c-7.45,0 -14.19,2.83 -20.23,8.48c-6.04,5.64 -9.06,11.85 -9.06,18.55c0,4.46 1.65,7.51 4.95,9.16c1.3,0.7 1.95,1.67 1.95,2.91c0,1.26 -1.42,2.74 -4.29,4.43c-2.85,1.69 -4.85,2.54 -6,2.54c-1.72,0 -3.33,-1.4 -4.85,-4.21c-1.52,-2.83 -2.28,-5.89 -2.28,-9.21c0,-8.89 3.84,-17.44 11.52,-25.68c7.7,-8.24 17.23,-12.35 28.6,-12.35zm10.76,18.46c-2.53,2.78 -4.39,6.03 -5.54,9.74c-1.15,3.73 -2.32,11.46 -3.47,23.21c-1.17,11.77 -3.06,21.03 -5.71,27.81c-2.65,6.76 -6.82,12.4 -12.52,16.91c-5.69,4.53 -11.95,6.78 -18.77,6.78c-4.83,0 -8.77,-1.48 -11.79,-4.46c-3.02,-2.98 -4.54,-6.78 -4.54,-11.41c0,-1.75 0.43,-3.17 1.3,-4.29c0.88,-1.09 2.67,-2.59 5.38,-4.48c2.69,-1.89 4.52,-2.83 5.48,-2.83c0.64,0 1.19,0.27 1.65,0.82c0.45,0.53 0.68,1.19 0.68,1.94c0,0.46 -0.17,2.2 -0.52,5.23c-0.35,3.03 -0.53,4.82 -0.53,5.38c0,5.62 1.91,8.43 5.71,8.43c4.29,0 7.9,-3.12 10.84,-9.4c2.92,-6.27 5.05,-16.09 6.35,-29.39c1.31,-13.32 3.31,-22.72 5.97,-28.22c2.67,-5.5 5.79,-9.37 9.35,-11.68c3.57,-2.3 6.03,-3.44 7.41,-3.44c0.96,0 2.03,1.12 3.26,3.35zm77.64,67.15c-5.03,5.91 -9.22,10.27 -12.61,13.08c-3.39,2.81 -6.43,4.22 -9.14,4.22c-3,0 -5.3,-1.5 -6.92,-4.48c-1.62,-2.98 -2.44,-7.02 -2.44,-12.16c-4.17,5.69 -7.93,9.88 -11.23,12.6c-3.31,2.69 -6.55,4.05 -9.71,4.05c-2.88,0 -5.22,-1.48 -6.96,-4.46c-1.75,-2.98 -2.63,-7 -2.63,-12.11c0,-9.81 2.67,-23.67 7.99,-41.57l15.36,-3.83c-6.34,22.74 -9.57,37.33 -9.67,43.72c0,4.53 1.38,6.78 4.13,6.78c2.01,0 4.46,-1.99 7.43,-5.96c2.94,-4 4.79,-7.49 5.52,-10.44l7.49,-30.28l15.56,-3.78c-3.59,14.2 -6.06,24.2 -7.41,29.94c-1.32,5.77 -2.01,9.81 -2.01,12.14c0,4.43 1.22,6.64 3.66,6.64c1.97,0 4.91,-2.23 8.79,-6.69l4.79,-5.55l0,8.14zm56.03,0c-8.79,11.53 -16.34,17.3 -22.61,17.3c-2.53,0 -4.6,-1.12 -6.16,-3.34c-1.56,-2.23 -2.34,-5.24 -2.34,-8.96c0,-5.09 1.68,-12.86 5.03,-23.35c1.8,-5.64 2.69,-9.23 2.69,-10.75c0,-1.53 -0.49,-2.28 -1.44,-2.28c-0.53,0 -1.23,0.34 -2.1,0.99c-0.8,0.68 -1.73,1.6 -2.81,2.78c-0.96,1.09 -2.01,2.42 -3.2,3.97c-1.02,1.33 -2.13,2.86 -3.31,4.55l-3.2,4.63c-1.4,2.16 -2.28,4.41 -2.63,6.78c-0.57,4.02 -0.94,7.73 -1.13,11.1c-0.12,2.52 -0.17,5.91 -0.17,10.17l-12.59,3.71c-0.41,-6.4 -0.62,-11.14 -0.62,-14.27c0,-7.61 0.72,-14.83 2.15,-21.63c1.42,-6.81 3.7,-14.46 6.86,-22.96l13.92,-3.34c-2.92,9.69 -4.85,17.37 -5.77,22.99c6.24,-8.65 11.21,-14.65 14.87,-17.97c3.69,-3.34 6.94,-5.01 9.8,-5.01c1.93,0 3.55,0.92 4.85,2.74c1.29,1.82 1.93,4.09 1.93,6.83c0,4.53 -1.64,12.04 -4.93,22.53c-2.26,7.2 -3.39,11.87 -3.39,14.03c0,2.88 0.94,4.31 2.81,4.31c2.79,0 7.29,-4.56 13.51,-13.67l0,8.14zm32.86,0c-4.79,5.91 -8.95,10.27 -12.44,13.08c-3.51,2.81 -6.84,4.22 -10,4.22c-3.28,0 -5.93,-1.72 -7.96,-5.16c-2.05,-3.44 -3.06,-7.97 -3.06,-13.59c0,-4.94 0.98,-11.43 2.92,-19.53l2.48,-10.85l-4.47,0.29l1.83,-11.19l5.44,-0.29l5.38,-22.12l15.32,-3.9l-5.94,24.68l8.03,-0.56l-1.89,10.9l-8.83,0.87l-3.82,16.06c-1.31,5.52 -1.97,9.93 -1.97,13.25c0,2.23 0.45,4.07 1.35,5.47c0.87,1.43 2.05,2.13 3.45,2.13c1.95,0 3.86,-0.78 5.77,-2.3c1.91,-1.55 4.7,-4.75 8.4,-9.62l0,8.14zm60.92,0c-5.03,5.91 -9.22,10.27 -12.61,13.08c-3.39,2.81 -6.43,4.22 -9.14,4.22c-3,0 -5.3,-1.5 -6.92,-4.48c-1.62,-2.98 -2.43,-7.02 -2.43,-12.16c-4.17,5.69 -7.93,9.88 -11.23,12.6c-3.31,2.69 -6.55,4.05 -9.71,4.05c-2.88,0 -5.22,-1.48 -6.96,-4.46c-1.76,-2.98 -2.63,-7 -2.63,-12.11c0,-9.81 2.67,-23.67 7.99,-41.57l15.36,-3.83c-6.34,22.74 -9.57,37.33 -9.67,43.72c0,4.53 1.39,6.78 4.14,6.78c2.01,0 4.46,-1.99 7.43,-5.96c2.94,-4 4.79,-7.49 5.52,-10.44l7.49,-30.28l15.56,-3.78c-3.59,14.2 -6.06,24.2 -7.41,29.94c-1.33,5.77 -2.01,9.81 -2.01,12.14c0,4.43 1.22,6.64 3.66,6.64c1.97,0 4.91,-2.23 8.79,-6.69l4.79,-5.55l0,8.14zm60.94,0c-6.08,7.17 -10.45,11.87 -13.08,14.03c-2.63,2.18 -5.13,3.27 -7.52,3.27c-6.02,0 -8.87,-6.61 -8.52,-19.84c-3.8,6.78 -7.31,11.77 -10.53,14.99c-3.21,3.22 -6.53,4.85 -9.96,4.85c-3.33,0 -6.18,-1.96 -8.52,-5.86c-2.34,-3.92 -3.51,-8.72 -3.51,-14.39c0,-7.12 1.56,-13.9 4.7,-20.35c3.14,-6.44 7.17,-11.65 12.07,-15.63c4.91,-4 9.26,-5.98 13.02,-5.98c4.76,0 8.09,2.71 9.98,8.16l11.74,-8.16l3.22,0l-5.07,20.91c-2.63,10.51 -3.94,17.71 -3.94,21.61c0,4.12 1.17,6.18 3.49,6.18c1.48,0 3.12,-1 4.89,-2.96c1.8,-1.96 4.31,-4.94 7.54,-8.96l0,8.14zm-41.77,3.78c3.8,0 7.39,-4.05 10.74,-12.11c3.37,-8.07 5.05,-15.5 5.05,-22.31c0,-2.66 -0.47,-4.72 -1.42,-6.22c-0.96,-1.48 -2.22,-2.23 -3.82,-2.23c-3.8,0 -7.41,4.02 -10.8,12.06c-3.41,8.04 -5.11,15.46 -5.11,22.21c0,2.57 0.51,4.63 1.52,6.23c0.99,1.57 2.28,2.37 3.84,2.37zm79.56,-3.78c-5.17,5.91 -9.71,10.27 -13.61,13.08c-3.92,2.81 -7.62,4.22 -11.17,4.22c-4.08,0 -7.35,-1.96 -9.85,-5.89c-2.5,-3.92 -3.74,-9.2 -3.74,-15.82c0,-9.96 1.74,-21.87 5.19,-35.78c3.45,-13.91 7.66,-26.75 12.59,-38.47l14.5,-6.66c0.45,-0.19 0.8,-0.29 1.03,-0.29c1.09,0 2.01,0.99 2.71,3c0.7,2.01 1.05,4.72 1.05,8.14c0,9.64 -1.79,18.99 -5.36,28.03c-3.57,9.04 -9.16,18.7 -16.76,28.95c-0.29,4.94 -0.45,8.33 -0.45,10.17c0,4.12 0.6,7.39 1.83,9.79c1.21,2.42 2.83,3.63 4.85,3.63c2.05,0 4.23,-0.92 6.55,-2.76c2.32,-1.84 5.87,-5.67 10.63,-11.48l0,8.14zm-21.87,-27.76c4.84,-6.68 8.75,-14.17 11.75,-22.48c3,-8.29 4.5,-15.43 4.5,-21.39c0,-1.77 -0.21,-3.17 -0.62,-4.24c-0.43,-1.07 -0.96,-1.6 -1.6,-1.6c-1.4,0 -3.45,4.36 -6.12,13.08c-2.69,8.72 -5.32,20.93 -7.91,36.63zm48.79,-44.62c0,11.34 -3.37,17.01 -10.1,17.01c-3.28,0 -6.06,-1.24 -8.38,-3.68c2.2,-4.17 3.92,-8.84 5.14,-14.05c3,2.33 5.42,3.49 7.23,3.49c2.05,0 4.09,-0.92 6.1,-2.76zm1.17,72.38c-8.91,11.53 -15.56,17.3 -19.98,17.3c-2.44,0 -4.49,-1.55 -6.16,-4.65c-1.68,-3.1 -2.52,-6.98 -2.52,-11.65c0,-10.07 2.73,-24.03 8.19,-41.86l14.52,-3.76l0.68,0l-5.71,22.19c-2.36,9.18 -3.53,15.72 -3.53,19.65c0,1.57 0.27,2.83 0.82,3.8c0.57,0.97 1.25,1.45 2.09,1.45c1.5,0 2.98,-0.66 4.48,-1.99c1.5,-1.33 3.88,-4.21 7.11,-8.62l0,8.14zm60.96,0c-5.48,6.76 -9.65,11.34 -12.54,13.71c-2.86,2.4 -5.4,3.59 -7.62,3.59c-2.69,0 -4.83,-1.65 -6.41,-4.92c-1.58,-3.27 -2.4,-8.07 -2.43,-14.37c-3.12,6.3 -6.51,11.1 -10.18,14.37c-3.66,3.27 -7,4.92 -9.96,4.92c-3.23,0 -6.08,-1.91 -8.56,-5.74c-2.48,-3.83 -3.7,-8.31 -3.7,-13.42c0,-10.61 3.1,-20.42 9.28,-29.48c6.18,-9.04 12.83,-13.56 19.94,-13.56c1.97,0 3.53,0.36 4.64,1.09c1.13,0.73 2.36,1.99 3.68,3.73l8.17,-42.76c6.65,-1.84 11.11,-2.76 13.43,-2.76c0.76,0 1.13,0.39 1.13,1.14c0,0.51 -0.93,5.42 -2.82,14.73c-7.56,37.21 -11.35,59.69 -11.35,67.46c0,1.84 0.31,3.3 0.92,4.41c0.6,1.09 1.4,1.65 2.38,1.65c2.43,0 6.43,-3.97 12.01,-11.92l0,8.14zm-41.25,3.78c3.72,0 7.19,-3.95 10.43,-11.87c3.23,-7.9 4.85,-15.31 4.85,-22.21c0,-2.81 -0.51,-5.06 -1.52,-6.74c-1.01,-1.67 -2.32,-2.5 -3.96,-2.5c-3.53,0 -6.96,4.14 -10.27,12.4c-3.3,8.26 -4.95,15.74 -4.95,22.41c0,2.62 0.49,4.7 1.46,6.23c0.95,1.53 2.28,2.28 3.96,2.28zm102.18,-3.78c-6.08,7.17 -10.45,11.87 -13.08,14.03c-2.63,2.18 -5.12,3.27 -7.52,3.27c-6.02,0 -8.87,-6.61 -8.52,-19.84c-3.8,6.78 -7.31,11.77 -10.53,14.99c-3.22,3.22 -6.53,4.85 -9.96,4.85c-3.33,0 -6.18,-1.96 -8.52,-5.86c-2.34,-3.92 -3.51,-8.72 -3.51,-14.39c0,-7.12 1.56,-13.9 4.7,-20.35c3.14,-6.44 7.17,-11.65 12.07,-15.63c4.91,-4 9.26,-5.98 13.02,-5.98c4.76,0 8.09,2.71 9.98,8.16l11.74,-8.16l3.22,0l-5.07,20.91c-2.63,10.51 -3.94,17.71 -3.94,21.61c0,4.12 1.17,6.18 3.49,6.18c1.48,0 3.12,-1 4.89,-2.96c1.79,-1.96 4.31,-4.94 7.54,-8.96l0,8.14zm-41.77,3.78c3.8,0 7.39,-4.05 10.74,-12.11c3.37,-8.07 5.05,-15.5 5.05,-22.31c0,-2.66 -0.47,-4.72 -1.42,-6.22c-0.95,-1.48 -2.22,-2.23 -3.82,-2.23c-3.8,0 -7.41,4.02 -10.8,12.06c-3.41,8.04 -5.11,15.46 -5.11,22.21c0,2.57 0.51,4.63 1.52,6.23c0.99,1.57 2.28,2.37 3.84,2.37zm102.71,-3.78c-5.48,6.76 -9.65,11.34 -12.53,13.71c-2.86,2.4 -5.4,3.59 -7.62,3.59c-2.69,0 -4.83,-1.65 -6.41,-4.92c-1.58,-3.27 -2.4,-8.07 -2.44,-14.37c-3.12,6.3 -6.51,11.1 -10.18,14.37c-3.66,3.27 -7,4.92 -9.96,4.92c-3.23,0 -6.08,-1.91 -8.56,-5.74c-2.48,-3.83 -3.7,-8.31 -3.7,-13.42c0,-10.61 3.1,-20.42 9.28,-29.48c6.18,-9.04 12.83,-13.56 19.94,-13.56c1.97,0 3.53,0.36 4.64,1.09c1.13,0.73 2.36,1.99 3.68,3.73l8.17,-42.76c6.65,-1.84 11.11,-2.76 13.43,-2.76c0.76,0 1.13,0.39 1.13,1.14c0,0.51 -0.93,5.42 -2.83,14.73c-7.56,37.21 -11.34,59.69 -11.34,67.46c0,1.84 0.31,3.3 0.92,4.41c0.6,1.09 1.4,1.65 2.38,1.65c2.44,0 6.43,-3.97 12.01,-11.92l0,8.14zm-41.24,3.78c3.72,0 7.19,-3.95 10.43,-11.87c3.23,-7.9 4.85,-15.31 4.85,-22.21c0,-2.81 -0.51,-5.06 -1.52,-6.74c-1.02,-1.67 -2.32,-2.5 -3.96,-2.5c-3.53,0 -6.96,4.14 -10.27,12.4c-3.3,8.26 -4.95,15.74 -4.95,22.41c0,2.62 0.49,4.7 1.46,6.23c0.95,1.53 2.28,2.28 3.96,2.28z" id="svg_63"/>
   </g>
  </g>
 </g>
</svg>